<svg width="32" height="36" viewBox="0 0 32 36" fill="none" xmlns="http://www.w3.org/2000/svg">
<path fill-rule="evenodd" clip-rule="evenodd" d="M21.1669 4.80371C17.3447 4.80371 14.2289 8.37639 14.2289 12.7591C14.2289 17.1417 17.3447 20.7144 21.1669 20.7144C24.9891 20.7144 28.1049 17.1417 28.1049 12.7591C28.1049 8.37639 24.9891 4.80371 21.1669 4.80371ZM4.13721 20.7144C4.13721 17.5178 6.39521 14.9287 9.18303 14.9287C11.9709 14.9287 14.2289 17.5178 14.2289 20.7144C14.2289 23.911 11.9709 26.5001 9.18303 26.5001C6.39521 26.5001 4.13721 23.911 4.13721 20.7144ZM6.66012 20.7144C6.66012 22.3055 7.79543 23.6073 9.18303 23.6073C10.5706 23.6073 11.7059 22.3055 11.7059 20.7144C11.7059 19.1234 10.5706 17.8216 9.18303 17.8216C7.79543 17.8216 6.66012 19.1234 6.66012 20.7144ZM19.2873 22.1609C17.2059 22.1609 15.5029 24.1135 15.5029 26.5001C15.5029 28.8867 17.2059 30.8394 19.2873 30.8394C21.3687 30.8394 23.0717 28.8867 23.0717 26.5001C23.0717 24.1135 21.3687 22.1609 19.2873 22.1609ZM18.0258 26.5001C18.0258 27.2957 18.5935 27.9466 19.2873 27.9466C19.9811 27.9466 20.5488 27.2957 20.5488 26.5001C20.5488 25.7046 19.9811 25.0537 19.2873 25.0537C18.5935 25.0537 18.0258 25.7046 18.0258 26.5001ZM16.7518 12.7591C16.7518 15.5507 18.7323 17.8216 21.1669 17.8216C23.6015 17.8216 25.582 15.5507 25.582 12.7591C25.582 9.96746 23.6015 7.69657 21.1669 7.69657C18.7323 7.69657 16.7518 9.96746 16.7518 12.7591Z" fill="#6F6F76"/>
</svg>
