<svg width="60" height="48" viewBox="0 0 60 48" fill="none" xmlns="http://www.w3.org/2000/svg">
<path fill-rule="evenodd" clip-rule="evenodd" d="M19.4647 0.00181799L40.944 0.00390915C41.1332 0.00390915 41.2953 0.116831 41.3674 0.278896L59.9494 39.029C59.9724 39.074 59.9881 39.1231 59.9954 39.1754V39.1785L59.9965 39.1827L59.9975 39.1921V39.1932C59.9996 39.213 60.0006 39.2319 59.9996 39.2517V39.2528V39.2622V39.2653V39.2716C59.9954 39.3291 59.9808 39.3835 59.9578 39.4337H59.9588L56.201 47.5337C56.1184 47.7136 55.9344 47.815 55.7483 47.8024L4.47633 47.746C4.39686 47.7523 4.31531 47.7387 4.23794 47.7021C4.12815 47.6498 4.04764 47.5599 4.00582 47.4553L0.0430826 38.9098C-0.0206976 38.7718 -0.0112874 38.6202 0.0556295 38.4958L19.0203 0.25903C19.105 0.0865097 19.2827 -0.00968335 19.4636 0.000772416L19.4647 0.00181799ZM33.1053 15.6834L36.7491 8.66651L23.3375 8.78048L5.17686 46.8207L55.4837 46.8761L58.8097 39.7055L15.0963 39.7661C14.8401 39.7661 14.632 39.5581 14.632 39.3019C14.632 39.2298 14.6487 39.1608 14.678 39.1001H14.677L25.7643 16.0629C25.8469 15.8914 26.0215 15.7942 26.2003 15.8005L33.1042 15.6823L33.1053 15.6834ZM23.3385 7.85305L20.1621 0.93029V0.929245L40.6522 0.931336L58.8014 38.7781L15.8355 38.8377L19.3612 31.5124C19.4291 31.5511 19.5075 31.5741 19.5912 31.5741L40.464 31.6629H40.4808L48.5767 31.6974C48.653 31.7027 48.7325 31.688 48.8067 31.6525C49.0378 31.5416 49.135 31.2635 49.0231 31.0324L37.9358 7.99525H37.9348C37.8595 7.83842 37.6985 7.73177 37.5134 7.73281L23.3385 7.85305Z" fill="#1E252C"/>
</svg>
