<svg width="60" height="48" viewBox="0 0 60 48" fill="none" xmlns="http://www.w3.org/2000/svg">
<path fill-rule="evenodd" clip-rule="evenodd" d="M40.944 0.00390915L19.4647 0.00181799L19.4636 0.000772416C19.2827 -0.00968335 19.105 0.0865097 19.0203 0.25903L0.0556295 38.4958C-0.0112874 38.6202 -0.0206976 38.7718 0.0430826 38.9098L4.00582 47.4553C4.04764 47.5599 4.12815 47.6498 4.23794 47.7021C4.31531 47.7387 4.39686 47.7523 4.47633 47.746L55.7483 47.8024C55.9344 47.815 56.1184 47.7136 56.201 47.5337L59.9588 39.4337H59.9578C59.9808 39.3835 59.9954 39.3291 59.9996 39.2716V39.2653V39.2622V39.2528V39.2517C60.0006 39.2319 59.9996 39.213 59.9975 39.1932V39.1921L59.9965 39.1827L59.9954 39.1785V39.1754C59.9881 39.1231 59.9724 39.074 59.9494 39.029L41.3674 0.278896C41.2953 0.116831 41.1332 0.00390915 40.944 0.00390915ZM33.9072 16.1528L37.5009 9.23426L47.8636 30.7658L40.7673 30.7355L33.9072 16.1528ZM22.5293 8.31415L19.4228 1.54404L0.983056 38.7237L4.44705 46.1923L22.5303 8.31415H22.5293ZM33.099 16.6119L39.7415 30.7324H39.7405L19.7773 30.6477L26.4784 16.7248L33.099 16.6119Z" fill="#1E252C"/>
</svg>
