<svg width="62" height="50" viewBox="0 0 62 50" fill="none" xmlns="http://www.w3.org/2000/svg">
<path fill-rule="evenodd" clip-rule="evenodd" d="M41.944 1.00391L20.4647 1.00182L20.4636 1.00077C20.2827 0.990317 20.105 1.08651 20.0203 1.25903L1.05563 39.4958C0.988713 39.6202 0.979302 39.7718 1.04308 39.9098L5.00582 48.4553C5.04764 48.5599 5.12815 48.6498 5.23794 48.7021C5.31531 48.7387 5.39686 48.7523 5.47633 48.746L56.7483 48.8024C56.9344 48.815 57.1184 48.7136 57.201 48.5337L60.9588 40.4337H60.9578C60.9808 40.3835 60.9954 40.3291 60.9996 40.2716V40.2653V40.2622V40.2528V40.2517C61.0006 40.2319 60.9996 40.213 60.9975 40.1932V40.1921L60.9965 40.1827L60.9954 40.1785V40.1754C60.9881 40.1231 60.9724 40.074 60.9494 40.029L42.3674 1.2789C42.2953 1.11683 42.1332 1.00391 41.944 1.00391ZM34.9072 17.1528L38.5009 10.2343L48.8636 31.7658L41.7673 31.7355L34.9072 17.1528ZM34.1053 16.6834L37.7491 9.66651L24.3375 9.78048L6.17686 47.8207L56.4837 47.8761L59.8097 40.7055L16.0963 40.7661C15.8401 40.7661 15.632 40.5581 15.632 40.3019C15.632 40.2298 15.6487 40.1608 15.678 40.1001H15.677L26.7643 17.0629C26.8469 16.8914 27.0215 16.7942 27.2003 16.8005L34.1042 16.6823L34.1053 16.6834ZM24.3385 8.85305L21.1621 1.93029V1.92924L41.6522 1.93134L59.8014 39.7781L16.8355 39.8377L20.3612 32.5124C20.4291 32.5511 20.5075 32.5741 20.5912 32.5741L41.464 32.6629H41.4808L49.5767 32.6974C49.653 32.7027 49.7325 32.688 49.8067 32.6525C50.0378 32.5416 50.135 32.2635 50.0231 32.0324L38.9358 8.99525H38.9348C38.8595 8.83842 38.6985 8.73177 38.5134 8.73281L24.3385 8.85305ZM23.5293 9.31415L20.4228 2.54404L1.98306 39.7237L5.44705 47.1923L23.5303 9.31415H23.5293ZM34.099 17.6119L40.7415 31.7324H40.7405L20.7773 31.6477L27.4784 17.7248L34.099 17.6119Z" fill="#1E252C"/>
<path d="M20.4647 1.00182L20.2879 1.17857L20.3611 1.25181L20.4646 1.25182L20.4647 1.00182ZM41.944 1.00391L41.9439 1.25391H41.944V1.00391ZM20.4636 1.00077L20.6404 0.824025L20.5731 0.756684L20.4781 0.751189L20.4636 1.00077ZM20.0203 1.25903L20.2443 1.37011L20.2447 1.3692L20.0203 1.25903ZM1.05563 39.4958L1.27593 39.6143L1.2796 39.6069L1.05563 39.4958ZM1.04308 39.9098L0.816143 40.0147L0.816282 40.015L1.04308 39.9098ZM5.00582 48.4553L5.23827 48.3623L5.23262 48.3501L5.00582 48.4553ZM5.23794 48.7021L5.13045 48.9278L5.13105 48.9281L5.23794 48.7021ZM5.47633 48.746L5.4766 48.496L5.46661 48.496L5.45665 48.4968L5.47633 48.746ZM56.7483 48.8024L56.7651 48.553L56.7568 48.5525L56.7486 48.5524L56.7483 48.8024ZM57.201 48.5337L56.9742 48.4285L56.9738 48.4294L57.201 48.5337ZM60.9588 40.4337L61.1856 40.5389L61.3504 40.1837H60.9588V40.4337ZM60.9578 40.4337L60.7305 40.3295L60.5682 40.6837H60.9578V40.4337ZM60.9996 40.2716L61.2489 40.2897L61.2496 40.2807V40.2716H60.9996ZM60.9996 40.2517L60.7496 40.2386V40.2517H60.9996ZM60.9975 40.1932H60.7475V40.2063L60.7489 40.2193L60.9975 40.1932ZM60.9975 40.1921H61.2475V40.1783L61.246 40.1645L60.9975 40.1921ZM60.9965 40.1827L61.2449 40.1551L61.2431 40.1384L61.239 40.1221L60.9965 40.1827ZM60.9954 40.1785H60.7454V40.2093L60.7529 40.2391L60.9954 40.1785ZM60.9954 40.1754H61.2454V40.158L61.243 40.1407L60.9954 40.1754ZM60.9494 40.029L60.7239 40.1371L60.7268 40.1429L60.9494 40.029ZM42.3674 1.2789L42.1389 1.38061L42.142 1.38699L42.3674 1.2789ZM38.5009 10.2343L38.7261 10.1258L38.5094 9.67549L38.279 10.119L38.5009 10.2343ZM34.9072 17.1528L34.6854 17.0376L34.6284 17.1474L34.681 17.2593L34.9072 17.1528ZM48.8636 31.7658L48.8625 32.0158L49.2622 32.0175L49.0888 31.6574L48.8636 31.7658ZM41.7673 31.7355L41.541 31.8419L41.6083 31.9848L41.7662 31.9855L41.7673 31.7355ZM37.7491 9.66651L37.971 9.78173L38.1625 9.41299L37.747 9.41652L37.7491 9.66651ZM34.1053 16.6834L33.9285 16.8602L34.1698 17.1015L34.3271 16.7986L34.1053 16.6834ZM24.3375 9.78048L24.3354 9.53049L24.1792 9.53182L24.1119 9.67277L24.3375 9.78048ZM6.17686 47.8207L5.95126 47.7129L5.78069 48.0702L6.17659 48.0707L6.17686 47.8207ZM56.4837 47.8761L56.4835 48.1261L56.6433 48.1262L56.7105 47.9813L56.4837 47.8761ZM59.8097 40.7055L60.0365 40.8107L60.2015 40.455L59.8094 40.4555L59.8097 40.7055ZM16.0963 40.7661V41.0161H16.0966L16.0963 40.7661ZM15.678 40.1001L15.9032 40.2088L16.0763 39.8501H15.678V40.1001ZM15.677 40.1001L15.4517 39.9917L15.2792 40.3501H15.677V40.1001ZM26.7643 17.0629L26.539 16.9544L26.539 16.9545L26.7643 17.0629ZM27.2003 16.8005L27.1915 17.0507L27.2046 17.0504L27.2003 16.8005ZM34.1042 16.6823L34.281 16.5056L34.206 16.4306L34.0999 16.4324L34.1042 16.6823ZM21.1621 1.93029H20.9121V1.98491L20.9348 2.03455L21.1621 1.93029ZM24.3385 8.85305L24.1113 8.95731L24.1788 9.10442L24.3407 9.10304L24.3385 8.85305ZM21.1621 1.92924L21.1621 1.67924L20.9121 1.67922V1.92924H21.1621ZM41.6522 1.93134L41.8777 1.82324L41.8096 1.68135L41.6523 1.68134L41.6522 1.93134ZM59.8014 39.7781L59.8017 40.0281L60.1982 40.0275L60.0268 39.67L59.8014 39.7781ZM16.8355 39.8377L16.6102 39.7293L16.4374 40.0882L16.8358 40.0877L16.8355 39.8377ZM20.3612 32.5124L20.4848 32.2951L20.2521 32.1626L20.1359 32.4039L20.3612 32.5124ZM20.5912 32.5741L20.5923 32.3241H20.5912V32.5741ZM41.464 32.6629L41.463 32.9129H41.464V32.6629ZM41.4808 32.6629L41.4818 32.4129H41.4808V32.6629ZM49.5767 32.6974L49.5938 32.448L49.5858 32.4475L49.5777 32.4474L49.5767 32.6974ZM49.8067 32.6525L49.9147 32.878L49.9148 32.8779L49.8067 32.6525ZM50.0231 32.0324L49.7979 32.1409L49.7981 32.1414L50.0231 32.0324ZM38.9358 8.99525L39.1611 8.88684L39.093 8.74525H38.9358V8.99525ZM38.9348 8.99525L38.7094 9.10344L38.7775 9.24525H38.9348V8.99525ZM38.5134 8.73281L38.512 8.48282L38.5113 8.48282L38.5134 8.73281ZM20.4228 2.54404L20.6501 2.43978L20.4316 1.9637L20.1989 2.43296L20.4228 2.54404ZM23.5293 9.31415L23.302 9.41841L23.3689 9.56415H23.5293V9.31415ZM1.98306 39.7237L1.75909 39.6126L1.70579 39.7201L1.75626 39.8289L1.98306 39.7237ZM5.44705 47.1923L5.22026 47.2975L5.44378 47.7794L5.67266 47.3L5.44705 47.1923ZM23.5303 9.31415L23.7559 9.42186L23.9267 9.06415H23.5303V9.31415ZM40.7415 31.7324V31.9824H41.1354L40.9678 31.6259L40.7415 31.7324ZM34.099 17.6119L34.3252 17.5054L34.2564 17.3591L34.0947 17.3619L34.099 17.6119ZM40.7405 31.7324L40.7394 31.9824H40.7405V31.7324ZM20.7773 31.6477L20.552 31.5393L20.3803 31.896L20.7762 31.8977L20.7773 31.6477ZM27.4784 17.7248L27.4741 17.4748L27.32 17.4774L27.2531 17.6164L27.4784 17.7248ZM20.4646 1.25182L41.9439 1.25391L41.944 0.753909L20.4647 0.751818L20.4646 1.25182ZM20.2868 1.17752L20.2879 1.17857L20.6415 0.825071L20.6404 0.824025L20.2868 1.17752ZM20.2447 1.3692C20.2834 1.29044 20.3648 1.24548 20.4492 1.25036L20.4781 0.751189C20.2007 0.735156 19.9266 0.882579 19.7959 1.14886L20.2447 1.3692ZM1.2796 39.6069L20.2443 1.37011L19.7963 1.14795L0.831664 39.3847L1.2796 39.6069ZM1.27002 39.8049C1.24054 39.7411 1.2446 39.6722 1.27581 39.6142L0.835452 39.3774C0.732821 39.5682 0.718068 39.8025 0.816143 40.0147L1.27002 39.8049ZM5.23262 48.3501L1.26988 39.8046L0.816282 40.015L4.77902 48.5605L5.23262 48.3501ZM5.34542 48.4764C5.29404 48.4519 5.25708 48.4103 5.23794 48.3625L4.7737 48.5482C4.8382 48.7094 4.96226 48.8477 5.13045 48.9278L5.34542 48.4764ZM5.45665 48.4968C5.41941 48.4997 5.38162 48.4935 5.34483 48.4761L5.13105 48.9281C5.24899 48.9839 5.37432 49.0048 5.49601 48.9952L5.45665 48.4968ZM56.7486 48.5524L5.4766 48.496L5.47605 48.996L56.748 49.0524L56.7486 48.5524ZM56.9738 48.4294C56.9362 48.5113 56.8517 48.5589 56.7651 48.553L56.7315 49.0519C57.0171 49.0711 57.3006 48.9159 57.4282 48.6381L56.9738 48.4294ZM60.732 40.3284L56.9742 48.4285L57.4278 48.6389L61.1856 40.5389L60.732 40.3284ZM60.9578 40.6837H60.9588V40.1837H60.9578V40.6837ZM60.7502 40.2535C60.7483 40.2799 60.7416 40.3052 60.7305 40.3295L61.185 40.5378C61.2199 40.4617 61.2425 40.3783 61.2489 40.2897L60.7502 40.2535ZM60.7496 40.2653V40.2716H61.2496V40.2653H60.7496ZM60.7496 40.2622V40.2653H61.2496V40.2622H60.7496ZM60.7496 40.2528V40.2622H61.2496V40.2528H60.7496ZM60.7496 40.2517V40.2528H61.2496V40.2517H60.7496ZM60.7489 40.2193C60.7501 40.2314 60.7501 40.2362 60.7499 40.2386L61.2492 40.2649C61.2512 40.2275 61.249 40.1947 61.2461 40.167L60.7489 40.2193ZM60.7475 40.1921V40.1932H61.2475V40.1921H60.7475ZM60.748 40.2103L60.749 40.2197L61.246 40.1645L61.2449 40.1551L60.748 40.2103ZM60.7529 40.2391L60.7539 40.2433L61.239 40.1221L61.238 40.118L60.7529 40.2391ZM60.7454 40.1754V40.1785H61.2454V40.1754H60.7454ZM60.7268 40.1429C60.7371 40.1629 60.7444 40.1853 60.7478 40.2101L61.243 40.1407C61.2318 40.061 61.2077 39.985 61.172 39.9151L60.7268 40.1429ZM42.142 1.38699L60.724 40.1371L61.1748 39.9209L42.5928 1.1708L42.142 1.38699ZM41.944 1.25391C42.0309 1.25391 42.1055 1.30537 42.139 1.38057L42.5958 1.17723C42.485 0.928288 42.2355 0.753909 41.944 0.753909V1.25391ZM38.279 10.119L34.6854 17.0376L35.1291 17.2681L38.7227 10.3495L38.279 10.119ZM49.0888 31.6574L38.7261 10.1258L38.2756 10.3427L48.6383 31.8742L49.0888 31.6574ZM41.7662 31.9855L48.8625 32.0158L48.8646 31.5158L41.7683 31.4855L41.7662 31.9855ZM34.681 17.2593L41.541 31.8419L41.9935 31.6291L35.1334 17.0464L34.681 17.2593ZM37.5272 9.5513L33.8834 16.5682L34.3271 16.7986L37.971 9.78173L37.5272 9.5513ZM24.3396 10.0305L37.7512 9.9165L37.747 9.41652L24.3354 9.53049L24.3396 10.0305ZM6.40247 47.9284L24.5631 9.88819L24.1119 9.67277L5.95126 47.7129L6.40247 47.9284ZM56.484 47.6261L6.17714 47.5707L6.17659 48.0707L56.4835 48.1261L56.484 47.6261ZM59.5829 40.6003L56.257 47.7709L56.7105 47.9813L60.0365 40.8107L59.5829 40.6003ZM16.0966 41.0161L59.8101 40.9555L59.8094 40.4555L16.0959 40.5161L16.0966 41.0161ZM15.382 40.3019C15.382 40.6962 15.702 41.0161 16.0963 41.0161V40.5161C15.9782 40.5161 15.882 40.42 15.882 40.3019H15.382ZM15.4529 39.9914C15.4077 40.0851 15.382 40.1912 15.382 40.3019H15.882C15.882 40.2683 15.8898 40.2364 15.9032 40.2088L15.4529 39.9914ZM15.677 40.3501H15.678V39.8501H15.677V40.3501ZM26.539 16.9545L15.4517 39.9917L15.9022 40.2085L26.9895 17.1713L26.539 16.9545ZM27.209 16.5506C26.9356 16.541 26.6666 16.6896 26.539 16.9544L26.9895 17.1714C27.0272 17.0933 27.1074 17.0474 27.1915 17.0503L27.209 16.5506ZM34.0999 16.4324L27.196 16.5505L27.2046 17.0504L34.1085 16.9323L34.0999 16.4324ZM34.282 16.5066L34.281 16.5056L33.9274 16.8591L33.9285 16.8602L34.282 16.5066ZM20.9348 2.03455L24.1113 8.95731L24.5658 8.74879L21.3893 1.82603L20.9348 2.03455ZM20.9121 1.92924V1.93029H21.4121V1.92924H20.9121ZM41.6523 1.68134L21.1621 1.67924L21.162 2.17924L41.6522 2.18134L41.6523 1.68134ZM60.0268 39.67L41.8777 1.82324L41.4268 2.03943L59.5759 39.8862L60.0268 39.67ZM16.8358 40.0877L59.8017 40.0281L59.801 39.5281L16.8351 39.5877L16.8358 40.0877ZM20.1359 32.4039L16.6102 39.7293L17.0607 39.9461L20.5864 32.6208L20.1359 32.4039ZM20.5912 32.3241C20.554 32.3241 20.5179 32.3139 20.4848 32.2951L20.2375 32.7296C20.3403 32.7882 20.461 32.8241 20.5912 32.8241V32.3241ZM41.4651 32.4129L20.5923 32.3241L20.5901 32.8241L41.463 32.9129L41.4651 32.4129ZM41.4808 32.4129H41.464V32.9129H41.4808V32.4129ZM49.5777 32.4474L41.4818 32.4129L41.4797 32.9129L49.5756 32.9474L49.5777 32.4474ZM49.6987 32.427C49.663 32.4441 49.6266 32.4503 49.5938 32.448L49.5596 32.9468C49.6794 32.9551 49.8019 32.932 49.9147 32.878L49.6987 32.427ZM49.7981 32.1414C49.8497 32.248 49.8047 32.3762 49.6986 32.4271L49.9148 32.8779C50.2708 32.7071 50.4203 32.279 50.2481 31.9235L49.7981 32.1414ZM38.7106 9.10367L49.7979 32.1409L50.2484 31.924L39.1611 8.88684L38.7106 9.10367ZM38.9348 9.24525H38.9358V8.74525H38.9348V9.24525ZM38.5148 8.98281C38.6009 8.98232 38.6749 9.03157 38.7094 9.10344L39.1602 8.88707C39.0441 8.64526 38.7961 8.48121 38.512 8.48282L38.5148 8.98281ZM24.3407 9.10304L38.5155 8.9828L38.5113 8.48282L24.3364 8.60306L24.3407 9.10304ZM20.1956 2.6483L23.302 9.41841L23.7565 9.20989L20.6501 2.43978L20.1956 2.6483ZM2.20702 39.8348L20.6468 2.65512L20.1989 2.43296L1.75909 39.6126L2.20702 39.8348ZM5.67385 47.0871L2.20985 39.6185L1.75626 39.8289L5.22026 47.2975L5.67385 47.0871ZM23.3047 9.20645L5.22144 47.0846L5.67266 47.3L23.7559 9.42186L23.3047 9.20645ZM23.5293 9.56415H23.5303V9.06415H23.5293V9.56415ZM40.9678 31.6259L34.3252 17.5054L33.8728 17.7183L40.5153 31.8388L40.9678 31.6259ZM40.7405 31.9824H40.7415V31.4824H40.7405V31.9824ZM20.7762 31.8977L40.7394 31.9824L40.7416 31.4824L20.7784 31.3977L20.7762 31.8977ZM27.2531 17.6164L20.552 31.5393L21.0026 31.7561L27.7037 17.8332L27.2531 17.6164ZM34.0947 17.3619L27.4741 17.4748L27.4827 17.9747L34.1033 17.8618L34.0947 17.3619Z" fill="#1E252C"/>
</svg>
