<svg width="31" height="36" viewBox="0 0 31 36" fill="none" xmlns="http://www.w3.org/2000/svg">
<path fill-rule="evenodd" clip-rule="evenodd" d="M11.0238 7.33482C11.0238 5.33875 12.4367 3.71875 14.1775 3.71875C15.9183 3.71875 17.3311 5.33875 17.3311 7.33482H22.3769C23.7645 7.33482 24.8998 8.63661 24.8998 10.2277V16.0134C26.6407 16.0134 28.0535 17.6334 28.0535 19.6295C28.0535 21.6255 26.6407 23.2455 24.8998 23.2455V29.0312C24.8998 30.6223 23.7645 31.9241 22.3769 31.9241H17.5834V31.4902C17.5834 29.335 16.057 27.5848 14.1775 27.5848C12.2979 27.5848 10.7715 29.335 10.7715 31.4902V31.9241H5.97799C4.59039 31.9241 3.45508 30.6223 3.45508 29.0312V23.5348H3.83352C5.71309 23.5348 7.23945 21.7846 7.23945 19.6295C7.23945 17.4743 5.71309 15.7241 3.83352 15.7241H3.46769V10.2277C3.46769 8.63661 4.59039 7.33482 5.97799 7.33482H11.0238ZM14.8082 7.33482C14.8082 6.92982 14.5307 6.61161 14.1775 6.61161C13.8243 6.61161 13.5467 6.92982 13.5467 7.33482V10.2277H5.97799L5.99061 13.2941C8.19816 14.2777 9.76236 16.7511 9.76236 19.6295C9.76236 22.5079 8.18554 24.9813 5.97799 25.9648V29.0313H8.65228C9.51007 26.5 11.6672 24.692 14.1775 24.692C16.6878 24.692 18.8449 26.5 19.7026 29.0313H22.3769V20.3527H24.8998C25.2531 20.3527 25.5306 20.0345 25.5306 19.6295C25.5306 19.2245 25.2531 18.9062 24.8998 18.9062H22.3769V10.2277H14.8082V7.33482Z" fill="#6F6F76"/>
</svg>

