<svg width="31" height="36" viewBox="0 0 31 36" fill="none" xmlns="http://www.w3.org/2000/svg">
<path fill-rule="evenodd" clip-rule="evenodd" d="M19.2277 21.0831H20.2243L26.519 28.3152L24.6394 30.4704L18.3321 23.2527V22.11L17.9915 21.705C16.5535 23.1225 14.6865 23.9759 12.6555 23.9759C8.1269 23.9759 4.45605 19.7668 4.45605 14.5741C4.45605 9.38147 8.1269 5.17236 12.6555 5.17236C17.1842 5.17236 20.855 9.38147 20.855 14.5741C20.855 16.9029 20.1108 19.0436 18.8745 20.6925L19.2277 21.0831ZM6.97897 14.5741C6.97897 18.1758 9.51451 21.0831 12.6555 21.0831C15.7966 21.0831 18.3321 18.1758 18.3321 14.5741C18.3321 10.9725 15.7966 8.06522 12.6555 8.06522C9.51451 8.06522 6.97897 10.9725 6.97897 14.5741Z" fill="#6F6F76"/>
</svg>

