<svg width="31" height="36" viewBox="0 0 31 36" fill="none" xmlns="http://www.w3.org/2000/svg">
<path fill-rule="evenodd" clip-rule="evenodd" d="M24.6847 17.8217C24.6847 18.3135 24.6469 18.7764 24.5964 19.2392L27.2581 21.6258C27.4977 21.8428 27.5608 22.2333 27.4094 22.5515L24.8865 27.5562C24.773 27.7876 24.5586 27.9178 24.3441 27.9178C24.2684 27.9178 24.1927 27.9033 24.117 27.8744L20.976 26.428C20.3201 26.9921 19.6137 27.4839 18.8442 27.8455L18.3648 31.6785C18.327 32.0256 18.0621 32.286 17.7467 32.286H12.7009C12.3855 32.286 12.1206 32.0256 12.0828 31.6785L11.6034 27.8455C10.8339 27.4839 10.1275 27.0065 9.47156 26.428L6.33054 27.8744C6.26746 27.9033 6.19178 27.9178 6.11609 27.9178C5.88903 27.9178 5.67458 27.7876 5.56105 27.5562L3.03814 22.5515C2.88677 22.2333 2.94984 21.8428 3.18952 21.6258L5.85119 19.2392C5.80073 18.7764 5.76288 18.299 5.76288 17.8217C5.76288 17.3444 5.80073 16.8671 5.85119 16.4042L3.18952 14.0176C2.94984 13.8006 2.87415 13.4101 3.03814 13.0919L5.56105 8.08724C5.67458 7.85581 5.88903 7.72564 6.10348 7.72564C6.17916 7.72564 6.25485 7.7401 6.33054 7.76903L9.47156 9.21546C10.1275 8.65135 10.8339 8.15956 11.6034 7.79796L12.0828 3.96492C12.1206 3.61778 12.3855 3.35742 12.7009 3.35742H17.7467C18.0621 3.35742 18.327 3.61778 18.3648 3.96492L18.8442 7.79796C19.6137 8.15956 20.3201 8.63689 20.976 9.21546L24.117 7.76903C24.1801 7.7401 24.2558 7.72564 24.3315 7.72564C24.5586 7.72564 24.773 7.85581 24.8865 8.08724L27.4094 13.0919C27.5608 13.4101 27.4977 13.8006 27.2581 14.0176L24.5964 16.4042C24.6469 16.8671 24.6847 17.3299 24.6847 17.8217ZM22.1618 17.8217C22.1618 17.518 22.1491 17.2142 22.0987 16.7658L21.9221 15.1314L23.0448 14.1189L24.3945 12.8894L23.5115 11.1392L21.9095 11.8769L20.5723 12.4989L19.4244 11.4864C18.9198 11.0524 18.4152 10.7197 17.8728 10.4594L16.5357 9.83742L16.3338 8.20296L16.0942 6.25028H14.3407L14.0885 8.20296L13.8866 9.83742L12.5495 10.4594C12.0323 10.7053 11.5151 11.0524 10.9727 11.5153L9.83735 12.4989L8.52544 11.8914L6.92339 11.1537L6.04037 12.9039L7.40274 14.1189L8.52544 15.1314L8.34884 16.7658C8.31099 17.1997 8.28576 17.5324 8.28576 17.8217C8.28576 18.111 8.31099 18.4437 8.34884 18.8921L8.52544 20.5265L7.40274 21.539L6.04037 22.754L6.92339 24.5042L8.52544 23.7665L9.86258 23.1446L11.0105 24.1571C11.5151 24.591 12.0197 24.9237 12.5621 25.184L13.8992 25.806L14.1011 27.4405L14.3407 29.3931H16.1068L16.3591 27.4405L16.5609 25.806L17.898 25.184C18.4152 24.9381 18.9324 24.591 19.4749 24.1281L20.6102 23.1446L21.9221 23.7521L23.5241 24.4897L24.4072 22.7396L23.0448 21.5246L21.9221 20.5121L22.0987 18.8776C22.1365 18.4437 22.1618 18.1255 22.1618 17.8217ZM15.2238 12.036C12.436 12.036 10.178 14.6251 10.178 17.8217C10.178 21.0183 12.436 23.6074 15.2238 23.6074C18.0116 23.6074 20.2696 21.0183 20.2696 17.8217C20.2696 14.6251 18.0116 12.036 15.2238 12.036ZM12.7009 17.8217C12.7009 19.4128 13.8362 20.7146 15.2238 20.7146C16.6114 20.7146 17.7467 19.4128 17.7467 17.8217C17.7467 16.2306 16.6114 14.9289 15.2238 14.9289C13.8362 14.9289 12.7009 16.2306 12.7009 17.8217Z" fill="#6F6F76"/>
</svg>
