<svg width="749" height="150" viewBox="0 0 749 150" fill="none" xmlns="http://www.w3.org/2000/svg">
<mask id="mask0" mask-type="alpha" maskUnits="userSpaceOnUse" x="3" y="57" width="385" height="83">
<path d="M111.36 131.36L111.24 137H73.08L72.36 133.16C74.68 131.64 78.08 130 82.56 128.24L82.2 95.96L83.88 75.44L61.68 135.08L47.88 137.84L25.56 76.04L27.48 95.96L26.88 129.32L36.96 131.36L36.84 137H3.72L3 133.16C5.64 131.56 9.2 129.84 13.68 128L15.36 66.68L5.52 64.64L5.64 59H37.32L37.2 59.12L58.44 118.28L80.16 59H108.12L108.84 62.84C106.28 64.44 103 66.04 99 67.64L100.08 129.08L111.36 131.36ZM182.876 131.24L168.116 138.92C166.116 138.84 163.996 137.84 161.756 135.92C159.516 133.92 157.876 131.6 156.836 128.96C149.716 133.92 142.876 137.24 136.316 138.92C133.836 138.76 131.196 137.92 128.396 136.4C125.676 134.88 123.476 132.88 121.796 130.4C120.676 128.72 120.076 125 119.996 119.24V88.76L110.996 87.68L110.156 81.92C117.036 79.28 124.156 77.88 131.516 77.72L137.396 83V115.88C137.396 122.84 139.956 126.32 145.076 126.32C147.956 126.32 151.396 125.32 155.396 123.32V88.64L147.836 87.44L146.996 81.68C152.916 79.36 159.556 78.04 166.916 77.72L172.796 83V123.32C172.796 125.48 173.796 126.56 175.796 126.56L181.796 125.84L182.876 131.24ZM223.44 57.08C231.68 57.08 238.76 59 244.68 62.84C250.68 66.68 255.24 71.64 258.36 77.72C261.48 83.8 263.04 90.2 263.04 96.92C263.04 108.6 259.4 118.12 252.12 125.48C244.92 132.84 235.32 136.68 223.32 137H183.84L183.12 133.16C185.44 131.64 188.84 130 193.32 128.24V65.24L184.8 64.16L184.92 58.04C196.44 57.4 209.28 57.08 223.44 57.08ZM220.68 127.04C227.56 127.04 233.12 124.28 237.36 118.76C241.68 113.24 243.84 106.2 243.84 97.64C243.84 91 242.44 84.8 239.64 79.04C236.92 73.28 233.36 69.08 228.96 66.44L211.56 68.24V125.6C214.84 126.56 217.88 127.04 220.68 127.04ZM327.052 131.24L312.412 138.92C310.492 138.84 308.492 138 306.412 136.4C304.332 134.72 302.692 132.68 301.492 130.28L288.412 138.56L284.692 138.8C279.652 138.8 275.492 137.32 272.212 134.36C268.932 131.4 267.292 127.84 267.292 123.68C267.292 117.92 270.412 113.36 276.652 110L299.572 109.4V98.72C299.572 92.32 297.692 88.24 293.932 86.48C290.252 86.72 287.252 87.24 284.932 88.04L282.772 101L272.692 101.36C270.932 96.96 270.052 92.12 270.052 86.84L270.172 84.44C274.572 82.52 279.852 80.84 286.012 79.4C292.172 77.88 296.852 77.12 300.052 77.12C303.012 77.12 305.892 77.92 308.692 79.52C311.572 81.12 313.892 83.2 315.652 85.76C316.532 87.28 317.012 90.32 317.092 94.88V123.68C317.092 125.6 318.092 126.56 320.092 126.56L325.972 125.84L327.052 131.24ZM287.212 128.12C290.412 128.04 294.532 127.04 299.572 125.12V116.48L296.572 116.36C288.652 116.36 284.692 118.52 284.692 122.84C284.692 125 285.532 126.76 287.212 128.12ZM329.805 108.08C329.805 99.04 332.565 91.68 338.085 86C343.685 80.32 350.645 77.48 358.965 77.48C367.285 77.48 374.125 80.4 379.485 86.24C384.925 92 387.645 99.48 387.645 108.68C387.645 117.96 384.965 125.4 379.605 131C374.325 136.6 367.565 139.4 359.325 139.4C350.925 139.4 343.885 136.44 338.205 130.52C332.605 124.6 329.805 117.12 329.805 108.08ZM364.245 128.96C368.005 126.32 369.885 120.04 369.885 110.12C369.885 103.56 368.885 98.2 366.885 94.04C364.965 89.8 362.005 87.68 358.005 87.68C355.605 87.68 353.565 88.24 351.885 89.36C349.005 93.2 347.565 99.36 347.565 107.84C347.565 114.24 348.605 119.48 350.685 123.56C352.765 127.56 355.925 129.56 360.165 129.56C361.605 129.56 362.965 129.36 364.245 128.96Z" fill="white"/>
</mask>
<g mask="url(#mask0)">
<rect x="-1086" y="-429" width="2250" height="1500"/>
</g>
</svg>
